<svg width="53" height="36" viewBox="0 0 53 36" fill="none" xmlns="http://www.w3.org/2000/svg">
<path d="M8.892 8.47673C7.73678 7.63932 6.30361 7.42615 4.95975 7.89326L1.70361 9.02368C1.51914 9.08823 1.39477 9.26404 1.39477 9.46192V12.2476C1.39477 12.3963 1.46656 12.5372 1.58592 12.6247C1.70528 12.7113 1.86053 12.7343 1.99993 12.6859L5.69345 11.4034C6.04235 11.282 6.41463 11.338 6.71345 11.5554C7.01394 11.7729 7.18505 12.1117 7.18505 12.4863V15.8283L3.79285 17.0063C1.52499 17.7927 0 19.9567 0 22.3891V26.2212C0 27.9767 0.807984 29.5691 2.21528 30.59C3.13344 31.255 4.19434 31.5973 5.2761 31.5973C5.85371 31.5973 6.43716 31.4996 7.00726 31.3017C9.2217 30.5331 10.7091 28.4217 10.7091 26.0479V12.0608C10.7091 10.6204 10.0464 9.31414 8.89116 8.47588L8.892 8.47673ZM5.95137 27.9096C5.38128 28.1083 4.77278 28.0183 4.28282 27.6624C3.79452 27.3083 3.51406 26.7571 3.51406 26.1498V22.8223C3.51406 21.7004 4.21771 20.6982 5.26442 20.3279L7.1742 19.6527L7.19173 26.1447C7.1934 26.9414 6.69425 27.6506 5.95054 27.9087L5.95137 27.9096Z" fill="#121212"/>
<path d="M17.3401 3.89078C17.2199 3.80415 17.0654 3.78122 16.926 3.82963L14.1665 4.77066C13.9829 4.8352 13.8594 5.01101 13.8594 5.2089V28.2725C13.8594 28.4211 13.9303 28.5621 14.0497 28.6488C14.1281 28.7057 14.2216 28.7354 14.316 28.7354C14.3652 28.7354 14.4144 28.7277 14.462 28.7108L17.2215 27.7612C17.4068 27.6975 17.5312 27.5209 17.5312 27.3222V4.26787C17.5312 4.11839 17.4594 3.97741 17.3392 3.89078H17.3401Z" fill="#121212"/>
<path d="M23.624 1.54434C21.8745 2.15754 20.6992 3.83151 20.6992 5.70847V25.8879C20.6992 26.0365 20.7702 26.1775 20.8895 26.2641C20.968 26.321 21.0615 26.3507 21.1558 26.3507C21.205 26.3507 21.2543 26.3431 21.3019 26.3261L24.0614 25.3766C24.2467 25.3129 24.371 25.1362 24.371 24.9375V5.87578C24.371 5.38658 24.6774 4.95174 25.1331 4.79377L28.3191 3.68713C28.5036 3.62258 28.628 3.44678 28.628 3.24889L28.6931 0.463184C28.6931 0.313707 28.6213 0.172723 28.5019 0.086094C28.3817 -0.000534733 28.2273 -0.0234659 28.0888 0.0249443L23.6232 1.54349L23.624 1.54434Z" fill="#121212"/>
<path d="M27.5137 26.1681V12.9122C27.5137 12.7219 27.633 12.5529 27.81 12.4918L30.4351 11.5822C30.5111 11.5559 30.5945 11.5465 30.673 11.5626C30.8867 11.6068 31.0261 11.7954 31.0261 11.9983V26.1587C31.0261 27.1881 31.8491 28.023 32.8641 28.023C33.879 28.023 34.7021 27.1889 34.7021 26.1587V10.4169C34.7021 10.2267 34.8214 10.0577 34.9992 9.99569L37.6243 9.08609C37.7003 9.05976 37.7829 9.05042 37.8622 9.06655C38.0759 9.11072 38.2153 9.29926 38.2153 9.50309V26.1681C38.2153 29.1661 35.8197 31.596 32.8649 31.596C29.9101 31.596 27.5137 29.1661 27.5137 26.1681Z" fill="#121212"/>
<path d="M46.7352 6.25781C43.7795 6.25781 41.3848 8.68766 41.3848 11.6857V35.5587C41.3848 35.7005 41.4524 35.8356 41.5667 35.918C41.6419 35.9723 41.7312 36.0003 41.8213 36.0003C41.8681 36.0003 41.9148 35.9927 41.9607 35.9774L44.595 35.0712C44.772 35.0101 44.8913 34.8419 44.8913 34.6525V26.4466C45.4656 26.6606 46.0874 26.7778 46.7352 26.7778C49.6908 26.7778 52.0855 24.3479 52.0855 21.3499V11.6857C52.0855 8.68766 49.69 6.25781 46.7352 6.25781ZM48.5732 15.4031V21.3397C48.5732 22.3691 47.7501 23.2039 46.7352 23.2039C45.7202 23.2039 44.8972 22.3691 44.8972 21.3397V11.695C44.8972 10.6657 45.7193 9.83082 46.7352 9.83082C47.751 9.83082 48.5732 10.6657 48.5732 11.695V15.4031Z" fill="#121212"/>
</svg>
