<svg width="25" height="25" viewBox="0 0 25 25" fill="none" xmlns="http://www.w3.org/2000/svg">
<path d="M8.3364 16.0079L3.20135 14.1157C3.05976 14.0634 2.93759 13.969 2.8513 13.8452C2.76501 13.7214 2.71875 13.5741 2.71875 13.4231C2.71875 13.2722 2.76501 13.1249 2.8513 13.0011C2.93759 12.8772 3.05976 12.7828 3.20135 12.7306L8.3364 10.8384L10.2286 5.70331C10.2809 5.56171 10.3753 5.43954 10.4991 5.35325C10.6229 5.26697 10.7702 5.2207 10.9212 5.2207C11.0721 5.2207 11.2194 5.26697 11.3432 5.35325C11.4671 5.43954 11.5615 5.56171 11.6137 5.70331L13.5059 10.8384L18.641 12.7306C18.7826 12.7828 18.9047 12.8772 18.991 13.0011C19.0773 13.1249 19.1236 13.2722 19.1236 13.4231C19.1236 13.5741 19.0773 13.7214 18.991 13.8452C18.9047 13.969 18.7826 14.0634 18.641 14.1157L13.5059 16.0079L11.6137 21.1429C11.5615 21.2845 11.4671 21.4067 11.3432 21.493C11.2194 21.5793 11.0721 21.6255 10.9212 21.6255C10.7702 21.6255 10.6229 21.5793 10.4991 21.493C10.3753 21.4067 10.2809 21.2845 10.2286 21.1429L8.3364 16.0079Z" stroke="#121212" stroke-width="1.49139" stroke-linecap="round" stroke-linejoin="round"/>
<path d="M16.8848 1.49219L16.8848 5.96636" stroke="#121212" stroke-width="1.49139" stroke-linecap="round" stroke-linejoin="round"/>
<path d="M21.3594 6.71094L21.3594 9.69372" stroke="#121212" stroke-width="1.49139" stroke-linecap="round" stroke-linejoin="round"/>
<path d="M14.6484 3.72852L19.1226 3.72852" stroke="#121212" stroke-width="1.49139" stroke-linecap="round" stroke-linejoin="round"/>
<path d="M19.8691 8.20117L22.8519 8.20117" stroke="#121212" stroke-width="1.49139" stroke-linecap="round" stroke-linejoin="round"/>
</svg>
